<svg xmlns="http://www.w3.org/2000/svg" id="svg3330" width="110.724" height="37.9" version="1.1"><metadata id="metadata3335"/><g id="layer1" transform="translate(-319.64995,-513.41138)"><g id="g5424" transform="matrix(1.1204236,0,0,1.1204236,378.23897,-788.71491)"><path id="rect6744" d="m -51.39745,1163.0948 85,0 0,29.5252 -85,0 2,-14.7626 z" style="fill:#f5efbc;fill-opacity:1;stroke:#000;stroke-width:1.79999995;stroke-linecap:round;stroke-linejoin:round;stroke-miterlimit:4;stroke-opacity:1;stroke-dashoffset:0"/><text id="text6752-6" x="-15.683" y="1071.211" transform="scale(0.90245956,1.1080829)" xml:space="preserve" style="font-size:24.31293869px;font-style:normal;font-variant:normal;font-weight:700;font-stretch:normal;text-align:center;line-height:125%;letter-spacing:0;word-spacing:0;text-anchor:middle;fill:#000;fill-opacity:1;stroke:none;font-family:Ubuntu;-inkscape-font-specification:Ubuntu Bold"><tspan style="font-style:normal;font-variant:normal;font-weight:700;font-stretch:normal;font-family:URW Palladio L;-inkscape-font-specification:URW Palladio L Bold" id="tspan6754-4" x="-15.683" y="1071.211">GFDL</tspan></text><path id="path7064-6" d="m 19.61576,1166.8577 0,24 0.1875,0 c -0.12127,0.1989 -0.1875,0.4164 -0.1875,0.625 0,2.002 5.8203,3.625 13,3.625 7.1797,0 13,-1.623 13,-3.625 0,-0.2086 -0.0662,-0.4261 -0.1875,-0.625 l 0.1875,0 0,-24 -26,0 z" style="color:#000;fill:#f5efbc;fill-opacity:1;fill-rule:nonzero;stroke:#000;stroke-width:1.79999995;stroke-linecap:round;stroke-linejoin:round;stroke-miterlimit:4;stroke-opacity:1;stroke-dasharray:none;stroke-dashoffset:0;marker:none;visibility:visible;display:inline;overflow:visible;enable-background:accumulate"/><path id="path7064" d="m 367.25,264.98718 c 0,2.00203 -5.8203,3.625 -13,3.625 -7.1797,0 -13,-1.62297 -13,-3.625 0,-2.00203 5.8203,-3.625 13,-3.625 7.1797,0 13,1.62297 13,3.625 z" transform="translate(-321.63424,901.70446)" style="color:#000;fill:#f5efbc;fill-opacity:1;fill-rule:nonzero;stroke:#000;stroke-width:1.79999995;stroke-linecap:round;stroke-linejoin:round;stroke-miterlimit:4;stroke-opacity:1;stroke-dasharray:none;stroke-dashoffset:0;marker:none;visibility:visible;display:inline;overflow:visible;enable-background:accumulate"/><path id="path7104" d="m 45.06778,1167.3815 c -2.44864,5.5993 -9.9067,7.192 -21.52831,5.7955 l 5.7779,9.7599 -6.02275,7.2171 c 7.75095,3.1192 17.18643,1.5723 22.07112,-0.1842 z" style="fill:#2e439b;fill-opacity:1;stroke:#000;stroke-width:1.39999986;stroke-linecap:butt;stroke-linejoin:miter;stroke-miterlimit:4;stroke-opacity:1;stroke-dasharray:none"/><path id="path7106" d="m 34.45935,1165.7653 c -3.4695,-0.1017 -8.01646,0.018 -10.47747,0.7778 1.2102,0.9782 6.11198,1.5627 9.94714,1.2348 3.20297,-0.2738 6.08198,-0.1311 7.93857,-1.1503 -0.70667,-1.1077 -3.93837,-3.3774 -7.91865,-3.2613" style="fill:none;stroke:#000;stroke-width:1.39999998;stroke-linecap:round;stroke-linejoin:round;stroke-miterlimit:4;stroke-opacity:1;stroke-dasharray:none"/></g></g></svg>